<?xml version="1.0" encoding="UTF-8" standalone="no"?>
<svg
   xmlns:dc="http://purl.org/dc/elements/1.1/"
   xmlns:cc="http://creativecommons.org/ns#"
   xmlns:rdf="http://www.w3.org/1999/02/22-rdf-syntax-ns#"
   xmlns:svg="http://www.w3.org/2000/svg"
   xmlns="http://www.w3.org/2000/svg"
   viewBox="0 0 1122.52 793.70667"
   height="793.70667"
   width="1122.52"
   xml:space="preserve"
   id="svg2"
   version="1.1"><metadata
     id="metadata8"><rdf:RDF><cc:Work
         rdf:about=""><dc:format>image/svg+xml</dc:format><dc:type
           rdf:resource="http://purl.org/dc/dcmitype/StillImage" /></cc:Work></rdf:RDF></metadata><defs
     id="defs6"><clipPath
       id="clipPath18"
       clipPathUnits="userSpaceOnUse"><path
         id="path16"
         d="M 0,595.28 H 841.89 V 0 H 0 Z" /></clipPath></defs><g
     transform="matrix(1.3333333,0,0,-1.3333333,0,793.70667)"
     id="g10"><g
       id="g12"><g
         clip-path="url(#clipPath18)"
         id="g14"><g
           transform="translate(382.208,252.9141)"
           id="g20"><path
             id="path22"
             style="fill:#ebec06;fill-opacity:1;fill-rule:nonzero;stroke:none"
             d="m 0,0 c 0,-5.835 4.729,-10.564 10.564,-10.564 h 56.345 c 5.834,0 10.565,4.73 10.565,10.565 v 89.45 c 0,5.835 -4.731,10.566 -10.565,10.566 H 10.564 C 4.729,100.017 0,95.286 0,89.451 Z" /></g><g
           transform="translate(395.8818,272.6631)"
           id="g24"><path
             id="path26"
             style="fill:#656263;fill-opacity:1;fill-rule:nonzero;stroke:none"
             d="m 0,0 c 0.375,0 0.793,0.07 1.254,0.207 v -2.21 h 2.291 v 6.91 H 1.254 V 2.003 C 1.005,1.898 0.685,1.847 0.296,1.847 c -0.375,0 -0.655,0.1 -0.839,0.3 -0.185,0.202 -0.276,0.512 -0.276,0.933 v 1.827 h -2.29 V 2.824 c 0,-0.922 0.263,-1.623 0.794,-2.102 C -1.785,0.24 -1.014,0 0,0 m 39.265,-0.153 c -0.151,-0.148 -0.346,-0.222 -0.582,-0.222 h -0.977 v 1.529 h 0.977 c 0.539,0 0.808,-0.228 0.808,-0.69 0,-0.263 -0.074,-0.468 -0.226,-0.617 m 2.568,0.656 c 0,0.751 -0.234,1.319 -0.701,1.704 -0.467,0.385 -1.133,0.578 -1.994,0.578 h -1.432 v 2.122 h -2.291 v -6.91 h 3.426 c 0.928,0 1.658,0.215 2.191,0.646 0.533,0.43 0.801,1.05 0.801,1.86 M 25.913,4.907 H 19.574 V 3.101 h 2.024 v -5.104 h 2.291 v 5.104 h 2.024 z M 10.91,-0.247 H 7.454 v 0.908 h 2.923 V 2.34 H 7.454 v 0.809 h 3.327 V 4.907 H 5.164 v -6.91 h 5.746 z m 37.241,5.974 c 0.336,-0.284 0.885,-0.425 1.649,-0.425 0.763,0 1.316,0.141 1.658,0.425 C 51.8,6.009 51.972,6.434 51.972,7 h -1.551 c 0,-0.224 -0.047,-0.386 -0.143,-0.483 -0.093,-0.099 -0.254,-0.15 -0.478,-0.15 -0.225,0 -0.381,0.051 -0.469,0.15 C 49.241,6.614 49.198,6.776 49.198,7 h -1.551 c 0,-0.566 0.168,-0.991 0.504,-1.273 M 13.696,-1.702 c 0.585,-0.306 1.243,-0.46 1.975,-0.46 0.672,0 1.27,0.119 1.797,0.355 0.526,0.238 0.961,0.58 1.303,1.028 l -1.47,1.312 c -0.429,-0.54 -0.932,-0.809 -1.512,-0.809 -0.487,0 -0.878,0.156 -1.175,0.469 -0.296,0.312 -0.444,0.733 -0.444,1.258 0,0.528 0.148,0.946 0.444,1.26 0.297,0.312 0.688,0.468 1.175,0.468 0.58,0 1.083,-0.269 1.512,-0.81 l 1.47,1.313 C 18.429,4.13 17.994,4.473 17.468,4.711 16.941,4.947 16.343,5.065 15.671,5.065 14.939,5.065 14.281,4.913 13.696,4.606 13.11,4.3 12.651,3.871 12.319,3.322 11.986,2.772 11.82,2.149 11.82,1.451 c 0,-0.696 0.166,-1.32 0.499,-1.87 0.332,-0.551 0.791,-0.977 1.377,-1.283 M 50.944,1.58 v -3.583 h 2.291 v 6.91 H 51.044 L 48.665,1.313 v 3.594 h -2.291 v -6.91 h 2.201 z m -6.189,3.327 h -2.291 v -6.91 h 2.291 z M 29.306,0.543 h 2.152 v -2.546 h 2.332 v 6.91 H 31.458 V 2.459 h -2.152 v 2.448 h -2.328 v -6.91 h 2.328 z m 4.763,-14.4 h -5.222 v 1.665 c 0,0.98 0.236,1.719 0.707,2.217 0.472,0.497 1.109,0.746 1.912,0.746 0.791,0 1.424,-0.249 1.894,-0.746 0.473,-0.498 0.709,-1.237 0.709,-2.217 z m 0.754,7.01 c -0.963,0.503 -2.074,0.755 -3.338,0.755 -1.261,0 -2.375,-0.252 -3.338,-0.755 -0.962,-0.505 -1.707,-1.236 -2.238,-2.2 -0.527,-0.963 -0.794,-2.12 -0.794,-3.472 v -7.23 h 3.732 v 2.966 h 5.222 v -2.966 h 3.785 v 7.23 c 0,1.352 -0.263,2.509 -0.792,3.472 -0.53,0.964 -1.276,1.695 -2.239,2.2 m 13.485,-5.977 5.158,6.464 H 48.95 l -4.703,-6.346 h -0.096 v 6.346 h -3.767 v -13.389 h 3.767 v 6.357 l 4.551,-6.357 h 4.912 z M 18.754,-11.39 H 13.59 v 5.03 H 9.803 v -13.389 h 3.787 v 5.223 h 5.164 v -5.223 h 3.787 V -6.36 h -3.787 z m -14.512,-0.325 2.774,2.983 v 2.372 h -9.679 v -2.925 h 5.278 l -2.388,-2.582 v -2.391 h 1.586 c 1.366,0 2.046,-0.435 2.046,-1.303 0,-0.445 -0.191,-0.79 -0.573,-1.032 -0.383,-0.242 -0.899,-0.363 -1.55,-0.363 -0.636,0 -1.284,0.096 -1.94,0.285 -0.658,0.193 -1.247,0.468 -1.771,0.824 l -1.377,-2.849 c 0.676,-0.421 1.477,-0.745 2.401,-0.977 0.925,-0.227 1.858,-0.343 2.803,-0.343 1.288,0 2.369,0.207 3.242,0.621 0.873,0.415 1.523,0.959 1.951,1.636 0.426,0.675 0.641,1.408 0.641,2.198 0,0.969 -0.296,1.796 -0.89,2.479 -0.593,0.681 -1.444,1.139 -2.554,1.367" /></g><g
           transform="translate(399.8154,296.5869)"
           id="g28"><path
             id="path30"
             style="fill:#656263;fill-opacity:1;fill-rule:nonzero;stroke:none"
             d="m 0,0 v 8.452 h -7.043 v -8.453 c 0,-5.835 4.73,-10.564 10.564,-10.564 h 8.451 v 7.043 H 3.521 C 1.576,-3.522 0,-1.945 0,0 m 42.259,8.452 v -8.453 c 0,-1.944 -1.576,-3.521 -3.522,-3.521 h -8.451 v -7.043 h 8.451 c 5.836,0 10.565,4.73 10.565,10.565 v 8.452 z m 0,26.762 v -8.45 h 7.043 v 8.45 c 0,5.836 -4.731,10.565 -10.565,10.565 h -8.451 v -7.044 h 8.451 c 1.946,0 3.522,-1.576 3.522,-3.521 M 0,35.214 c 0,1.945 1.576,3.522 3.521,3.522 h 8.451 v 7.043 H 3.521 c -5.835,0 -10.565,-4.73 -10.565,-10.565 v -8.45 H 0 Z M 35.167,29.085 16.961,10.878 6.885,20.953 1.903,15.974 16.961,0.916 40.149,24.105 Z" /></g></g></g></g></svg>