<?xml version="1.0" encoding="utf-8"?>
<svg viewBox="0 0 106.915 150.591" xmlns="http://www.w3.org/2000/svg">
  <defs>
    <clipPath id="clipPath18" clipPathUnits="userSpaceOnUse">
      <path id="path16" d="M 0,595.28 H 841.89 V 0 H 0 Z"/>
    </clipPath>
  </defs>
  <g transform="matrix(1.333333, 0, 0, -1.333333, -507.574692, 472.149733)" id="g10">
    <g id="g12">
      <g clip-path="url(#clipPath18)" id="g14">
        <g transform="translate(382.208,252.9141)" id="g20">
          <path id="path22" style="fill:#ebec06;fill-opacity:1;fill-rule:nonzero;stroke:none" d="M 0 29.004 C 0 23.169 4.729 19.463 10.564 19.463 L 66.909 19.805 C 72.743 19.805 77.474 24.194 77.474 30.029 L 77.474 89.451 C 77.474 95.286 72.743 100.017 66.909 100.017 L 10.564 100.017 C 4.729 100.017 0 95.286 0 89.451 L 0 29.004 Z"/>
        </g>
        <g transform="translate(395.8818,272.6631)" id="g24"/>
        <g transform="translate(399.8154,296.5869)" id="g28">
          <path id="path30" style="fill:#656263;fill-opacity:1;fill-rule:nonzero;stroke:none" d="m 0,0 v 8.452 h -7.043 v -8.453 c 0,-5.835 4.73,-10.564 10.564,-10.564 h 8.451 v 7.043 H 3.521 C 1.576,-3.522 0,-1.945 0,0 m 42.259,8.452 v -8.453 c 0,-1.944 -1.576,-3.521 -3.522,-3.521 h -8.451 v -7.043 h 8.451 c 5.836,0 10.565,4.73 10.565,10.565 v 8.452 z m 0,26.762 v -8.45 h 7.043 v 8.45 c 0,5.836 -4.731,10.565 -10.565,10.565 h -8.451 v -7.044 h 8.451 c 1.946,0 3.522,-1.576 3.522,-3.521 M 0,35.214 c 0,1.945 1.576,3.522 3.521,3.522 h 8.451 v 7.043 H 3.521 c -5.835,0 -10.565,-4.73 -10.565,-10.565 v -8.45 H 0 Z M 35.167,29.085 16.961,10.878 6.885,20.953 1.903,15.974 16.961,0.916 40.149,24.105 Z"/>
        </g>
      </g>
    </g>
  </g>
</svg>